<?xml version="1.0" standalone="no"?><!DOCTYPE svg PUBLIC "-//W3C//DTD SVG 1.1//EN" "http://www.w3.org/Graphics/SVG/1.1/DTD/svg11.dtd"><svg t="1636189579087" class="icon" viewBox="0 0 1024 1024" version="1.1" xmlns="http://www.w3.org/2000/svg" p-id="5801" xmlns:xlink="http://www.w3.org/1999/xlink" width="200" height="200"><defs><style type="text/css"></style></defs><path d="M580.8 468.8H448c-38.4 0-68.8-30.4-68.8-64s30.4-64 68.8-64h192c25.6 0 43.2-17.6 43.2-43.2s-17.6-43.2-43.2-43.2h-84.8v-43.2c0-25.6-17.6-43.2-43.2-43.2s-43.2 17.6-43.2 43.2V256h-17.6c-84.8 0-153.6 68.8-153.6 148.8s68.8 148.8 153.6 148.8h132.8c38.4 0 68.8 30.4 68.8 64s-33.6 64-72 64H384c-25.6 0-43.2 17.6-43.2 43.2S358.4 768 384 768h84.8v43.2c0 25.6 17.6 43.2 43.2 43.2s43.2-17.6 43.2-43.2V768h25.6c84.8 0 153.6-68.8 153.6-148.8s-68.8-150.4-153.6-150.4z" p-id="5802" fill="#1296db"></path><path d="M512 0C230.4 0 0 230.4 0 512s230.4 512 512 512 512-230.4 512-512S793.6 0 512 0z m0 939.2c-235.2 0-427.2-192-427.2-427.2S276.8 84.8 512 84.8s427.2 192 427.2 427.2-192 427.2-427.2 427.2z" p-id="5803" fill="#1296db"></path></svg>